<svg width="1064" height="673" viewBox="0 0 1064 673" fill="none" xmlns="http://www.w3.org/2000/svg">
<g id="undraw_aircraft_fbvl (1) 1">
<g clip-path="url(#clip0)">
<g id="planeyellow">
<path id="mainbody" d="M203.49 396.66C213.26 400.26 230.42 403.22 250.28 405.6C304.28 412.08 378.28 414.38 378.28 414.38C378.28 414.38 758.69 445.93 1043.8 328.59C1043.8 328.59 1085.27 306.85 1046.8 277.59C1040.88 273.218 1034.58 269.376 1027.98 266.11L1027.51 265.64C1023.13 261.596 1018.41 257.951 1013.38 254.75C998.61 245.2 973.67 233.88 943.31 239.01L194.49 360.12C194.49 360.12 167.14 383.23 203.49 396.66Z" fill="#3F3D56"/>
<path id="backwingtop" d="M352.69 341.77L195.93 230.55L126.84 242.5L194.49 360.12C194.49 360.12 350.89 361.37 352.69 341.77Z" fill="#3F3D56"/>
<path id="wingleft" d="M747.35 274.2L435.1 186.63L384.77 197.15L525.82 260.6L569.9 309.92L747.35 274.2Z" fill="#3F3D56"/>
<path id="body" d="M250.28 405.6C304.28 412.08 378.28 414.38 378.28 414.38C378.28 414.38 758.69 445.93 1043.8 328.59C1043.8 328.59 1085.27 306.85 1046.8 277.59L1046.67 278.13C1046.67 278.13 985.15 319.71 691.21 354.42L250.28 405.6Z" fill="#E2B530"/>
<path id="backwing" d="M300.47 403.2L160.87 460.2L125.8 456.31L209.3 393.55C209.3 393.55 310.3 372 300.47 403.2Z" fill="#3F3D56"/>
<path id="window" d="M996.05 284.22C1002.71 284.33 1017.97 273.16 1027.46 265.64C1023.08 261.596 1018.36 257.951 1013.33 254.75C1005.68 260.62 992.07 270.12 984.5 269.75C973.57 269.3 986.02 284.04 996.05 284.22Z" fill="#E2B530"/>
<path id="wingbottom" d="M361.84 600.23L451.47 604.92L703.47 435L750.25 403.45L772.97 388.12C730.34 352.12 556.41 401.77 556.41 401.77C553.08 404.58 552.02 409.25 552.17 414.41C552.46 424.07 557 435.41 558.75 439.49C559.17 440.49 559.43 441.02 559.43 441.02L361.84 600.23Z" fill="#3F3D56"/>
</g>
</g>
</g>
<defs>
<clipPath id="clip0">
<rect width="1063.13" height="672.74" transform="matrix(-1 0 0 1 1063.13 0)" fill="white"/>
</clipPath>
</defs>
</svg>
