<svg width="1064" height="673" viewBox="0 0 1064 673" fill="none" xmlns="http://www.w3.org/2000/svg">
<g id="undraw_aircraft_fbvl (1) 1">
<g clip-path="url(#clip0)">
<g id="planeyellow">
<path id="mainbody" d="M985.463 396.66C975.693 400.26 958.533 403.22 938.673 405.6C884.673 412.08 810.673 414.38 810.673 414.38C810.673 414.38 430.263 445.93 145.153 328.59C145.153 328.59 103.683 306.85 142.153 277.59C148.077 273.218 154.375 269.376 160.973 266.11L161.443 265.64C165.819 261.596 170.548 257.951 175.573 254.75C190.343 245.2 215.283 233.88 245.643 239.01L994.463 360.12C994.463 360.12 1021.81 383.23 985.463 396.66Z" fill="#3F3D56"/>
<path id="backwingtop" d="M836.263 341.77L993.023 230.55L1062.11 242.5L994.463 360.12C994.463 360.12 838.063 361.37 836.263 341.77Z" fill="#3F3D56"/>
<path id="wingleft" d="M441.603 274.2L753.853 186.63L804.183 197.15L663.133 260.6L619.053 309.92L441.603 274.2Z" fill="#3F3D56"/>
<path id="body" d="M938.673 405.6C884.673 412.08 810.673 414.38 810.673 414.38C810.673 414.38 430.263 445.93 145.153 328.59C145.153 328.59 103.683 306.85 142.153 277.59L142.283 278.13C142.283 278.13 203.803 319.71 497.743 354.42L938.673 405.6Z" fill="#E2B530"/>
<path id="backwing" d="M888.483 403.2L1028.08 460.2L1063.15 456.31L979.653 393.55C979.653 393.55 878.653 372 888.483 403.2Z" fill="#3F3D56"/>
<path id="window" d="M192.903 284.22C186.243 284.33 170.983 273.16 161.493 265.64C165.869 261.596 170.598 257.951 175.623 254.75C183.273 260.62 196.883 270.12 204.453 269.75C215.383 269.3 202.933 284.04 192.903 284.22Z" fill="#E2B530"/>
<path id="wingbottom" d="M827.113 600.23L737.483 604.92L485.483 435L438.703 403.45L415.983 388.12C458.613 352.12 632.543 401.77 632.543 401.77C635.873 404.58 636.933 409.25 636.783 414.41C636.493 424.07 631.953 435.41 630.203 439.49C629.783 440.49 629.523 441.02 629.523 441.02L827.113 600.23Z" fill="#3F3D56"/>
</g>
</g>
</g>
<defs>
<clipPath id="clip0">
<rect width="1063.13" height="672.74" transform="matrix(-1 0 0 1 1063.13 0)" fill="white"/>
</clipPath>
</defs>
</svg>
