<svg width="825" height="618" viewBox="0 0 825 618" fill="none" xmlns="http://www.w3.org/2000/svg">
<g id="Group 1">
<g id="tree">
<g id="tree 1">
<g clip-path="url(#clip0)">
<path id="Vector" d="M392.648 602.604C500.696 602.604 588.286 599.701 588.286 596.121C588.286 592.54 500.696 589.637 392.648 589.637C284.6 589.637 197.01 592.54 197.01 596.121C197.01 599.701 284.6 602.604 392.648 602.604Z" fill="#3F3D56"/>
<path id="Vector_2" d="M301.45 306.406C340.111 306.406 371.453 277.322 371.453 241.445C371.453 205.569 340.111 176.485 301.45 176.485C262.788 176.485 231.447 205.569 231.447 241.445C231.447 277.322 262.788 306.406 301.45 306.406Z" fill="#FF6584"/>
<path id="Vector_3" d="M218.973 579.112C251.557 579.112 277.973 576.852 277.973 574.065C277.973 571.278 251.557 569.018 218.973 569.018C186.388 569.018 159.973 571.278 159.973 574.065C159.973 576.852 186.388 579.112 218.973 579.112Z" fill="#3F3D56"/>
<path id="Vector_4" d="M326.457 596.564C326.457 596.564 375.426 475.387 348.43 400.816C321.435 326.246 300.089 329.159 300.089 329.159C300.089 329.159 263.677 320.42 218.475 346.054C173.273 371.687 161.345 379.261 135.605 368.774C109.865 358.288 104.843 341.976 42.0627 343.723C42.0627 343.723 75.3362 326.829 107.982 341.976C140.628 357.123 162.601 365.279 195.874 341.976C229.148 318.672 274.977 288.378 319.551 306.438C319.551 306.438 286.905 276.727 276.233 276.727C265.56 276.727 215.336 272.066 199.013 256.336C199.013 256.336 175.785 241.189 134.35 278.474C92.9147 315.76 102.96 315.76 65.9192 312.847C28.8789 309.934 0 293.039 0 293.039C0 293.039 43.3183 309.351 69.686 301.195C96.0537 293.039 118.655 262.162 141.883 251.675C165.112 241.189 178.924 227.207 210.314 242.354C210.314 242.354 197.13 192.252 172.018 196.33C146.906 200.408 183.946 184.679 183.946 184.679C183.946 184.679 177.04 99.6216 163.856 93.7958C150.672 87.9699 158.834 72.8229 134.35 69.9099C134.35 69.9099 164.484 66.4144 170.134 85.6396C175.785 104.865 214.708 208.564 214.708 208.564C214.708 208.564 238.565 252.841 264.932 242.354C291.3 231.868 254.888 173.027 254.888 173.027L209.686 153.802C209.686 153.802 243.587 152.637 264.305 170.697C285.022 188.757 286.278 247.015 286.278 247.015C286.278 247.015 338.385 254.006 350.941 280.222C350.941 280.222 359.103 256.919 343.408 242.937C339.484 239.441 335.364 233.361 331.391 226.206C316.198 198.844 311.044 167.654 315.824 137.195C318.162 122.29 319.602 107.716 317.04 104.282C311.39 96.7087 287.533 50.1021 285.65 37.8679C283.766 25.6337 287.533 4.57764e-05 287.533 4.57764e-05C287.533 4.57764e-05 288.161 31.4595 295.695 41.3634C303.228 51.2673 324.574 100.204 324.574 100.204C324.574 100.204 324.574 161.958 342.152 192.252C359.73 222.546 393.632 256.336 391.748 278.474V291.291C391.748 291.291 429.416 258.084 426.905 247.015C424.394 235.946 421.255 209.73 397.399 194C373.542 178.27 357.847 153.219 374.798 117.099C391.748 80.9789 391.748 74.5705 391.748 74.5705L380.448 119.429C380.448 119.429 374.17 159.628 391.748 173.609C409.327 187.591 432.555 213.225 432.555 213.225L427.533 129.333L443.856 162.54C443.856 162.54 479.013 120.595 520.448 106.613C561.883 92.6306 587.622 43.6937 587.622 43.6937L622.779 18.0601L593.901 50.1021C593.901 50.1021 585.111 87.9699 535.515 114.769C485.919 141.567 453.901 181.183 452.017 205.652C450.134 230.12 448.251 251.675 448.251 251.675C448.251 251.675 541.165 248.763 561.883 210.895C582.6 173.027 584.484 97.8738 604.573 85.6396C624.663 73.4054 662.331 58.2582 662.331 58.2582L620.268 90.3003C620.268 90.3003 611.479 116.516 613.362 135.159C615.246 153.802 599.551 171.279 599.551 171.279L587.622 203.904L574.439 231.868C574.439 231.868 628.43 233.033 656.681 262.745C684.932 292.456 755.246 301.195 755.246 301.195L715.694 311.099C715.694 311.099 678.026 299.447 642.241 277.892C606.457 256.336 610.223 237.111 565.649 258.666C521.076 280.222 460.179 298.282 460.179 298.282C460.179 298.282 495.336 283.135 558.744 319.838C622.152 356.54 527.354 313.429 499.102 327.411C470.851 341.393 457.668 323.916 446.367 358.871C435.067 393.825 414.349 489.369 438.206 542.966L462.062 596.564H326.457Z" fill="#3F3D56"/>
<path id="Vector_5" opacity="0.1" d="M562.835 210.895C546.004 241.66 481.518 249.353 457.92 251.157C457.258 259.054 456.822 264.049 456.822 264.049C456.822 264.049 549.737 261.136 570.454 223.268C591.172 185.4 593.055 110.247 613.145 98.0126C615.275 96.7152 617.605 95.3848 620.065 94.0433C620.755 91.692 621.221 90.3002 621.221 90.3002L663.283 58.2582C663.283 58.2582 625.615 73.4054 605.526 85.6396C585.436 97.8738 583.552 173.027 562.835 210.895Z" fill="black"/>
<path id="Vector_6" opacity="0.1" d="M454.571 152.039C454.434 166.382 452.427 174.913 452.427 174.913C452.427 174.913 487.57 132.985 528.993 118.995C531.441 117.557 533.925 116.142 536.467 114.769C586.064 87.9699 594.853 50.102 594.853 50.102L623.732 18.06L588.575 43.6937C588.575 43.6937 562.835 92.6306 521.4 106.613C493.156 116.143 467.834 138.663 454.571 152.039Z" fill="black"/>
<path id="Vector_7" opacity="0.1" d="M400.32 290.847V303.664C400.32 303.664 437.988 270.457 435.477 259.388C433.556 250.923 431.257 233.602 419.616 218.884C424.863 230.006 426.46 240.856 427.858 247.015C429.658 254.952 410.799 274.273 399.983 284.57C400.363 286.643 400.476 288.75 400.32 290.847Z" fill="black"/>
<path id="Vector_8" opacity="0.1" d="M349.792 202.892C350.09 203.482 350.397 204.063 350.723 204.625C360.351 221.216 374.865 238.852 385.724 255.052C376.947 239.009 361.674 220.664 349.792 202.892Z" fill="black"/>
<path id="Vector_9" opacity="0.1" d="M380.398 178.089C375.336 166.578 374.502 152.881 380.318 136.831C380.245 131.014 380.607 125.2 381.4 119.429L391.286 80.188C389.463 85.8469 385.293 96.7641 375.75 117.099C363.669 142.842 368.178 162.958 380.398 178.089Z" fill="black"/>
<path id="Vector_10" opacity="0.1" d="M657.633 262.745C638.041 242.139 606.074 235.265 588.316 232.986L583.01 244.241C583.01 244.241 637.001 245.406 665.252 275.118C680.919 291.594 709.517 301.618 731.889 307.282L756.198 301.195C756.198 301.195 685.884 292.456 657.633 262.745Z" fill="black"/>
<path id="Vector_11" opacity="0.1" d="M273.504 254.727C299.872 244.241 263.459 185.4 263.459 185.4L262.463 184.976C271.541 202.75 284.706 234.869 265.885 242.354C248.273 249.358 231.783 231.932 222.773 219.586C223.1 220.459 223.28 220.937 223.28 220.937C223.28 220.937 247.136 265.214 273.504 254.727Z" fill="black"/>
<path id="Vector_12" opacity="0.1" d="M359.513 292.595C359.513 292.595 367.458 269.869 352.532 255.837C356.192 267.925 351.894 280.222 351.894 280.222C342.181 259.942 308.805 251.168 294.186 248.234C294.753 254.986 294.849 259.388 294.849 259.388C294.849 259.388 346.957 266.379 359.513 292.595Z" fill="black"/>
<path id="Vector_13" opacity="0.1" d="M391.286 80.188C392.7 75.7952 392.701 74.5705 392.701 74.5705L391.286 80.188Z" fill="black"/>
<path id="Vector_14" opacity="0.1" d="M77.8765 313.679C78.0032 313.642 78.1317 313.607 78.2575 313.568C104.625 305.412 127.226 274.535 150.455 264.049C173.683 253.562 187.495 239.58 218.885 254.727C218.885 254.727 213.393 233.868 202.752 220.163C206.276 227.318 209.125 234.742 211.266 242.354C179.876 227.207 166.064 241.189 142.836 251.675C119.607 262.162 97.0061 293.039 70.6384 301.195C44.2707 309.351 0.952393 293.039 0.952393 293.039C0.952393 293.039 29.8313 309.934 66.8716 312.847C71.1088 313.18 74.7242 313.474 77.8765 313.679Z" fill="black"/>
<path id="Vector_15" opacity="0.1" d="M339.615 596.564C351.118 563.841 378.782 473.354 357.002 413.19C347.596 387.207 338.877 370.639 331.507 360.069C337.019 370.075 343.045 383.31 349.382 400.816C376.378 475.387 327.409 596.564 327.409 596.564H339.615Z" fill="black"/>
<path id="Vector_16" opacity="0.1" d="M94.4405 348.409C102.137 349.134 109.629 351.147 116.553 354.349C142.336 366.311 161.466 373.898 184.758 365.087C190.064 362.486 196 359.267 202.844 355.435C203.378 355.073 203.906 354.727 204.446 354.349C237.719 331.045 283.549 300.751 328.123 318.811C328.123 318.811 319.114 310.615 309.016 302.831C268.161 293.531 227.246 320.671 196.827 341.976C163.553 365.279 141.58 357.123 108.934 341.976C76.2885 326.829 43.0151 343.723 43.0151 343.723C67.2718 343.048 82.902 345.07 94.4405 348.409Z" fill="black"/>
<path id="Vector_17" opacity="0.1" d="M158.164 88.1401C158.881 89.2592 159.748 90.2885 160.746 91.203C160.013 90.0947 159.147 89.0672 158.164 88.1401Z" fill="black"/>
<path id="Vector_18" opacity="0.1" d="M272.876 183.07C273.846 183.921 274.756 184.831 275.598 185.793C272.848 179.658 269.452 174.353 265.257 170.697C244.54 152.637 210.638 153.802 210.638 153.802L253.154 171.885C260.439 174.407 267.134 178.204 272.876 183.07Z" fill="black"/>
<path id="Vector_19" opacity="0.1" d="M317.992 104.282C320.554 107.716 319.115 122.29 316.776 137.195C311.997 167.654 317.151 198.844 332.343 226.206C334.343 229.878 336.577 233.436 339.033 236.862C324.566 209.916 319.715 179.393 324.395 149.568C326.734 134.663 328.173 120.089 325.611 116.655C319.961 109.082 296.105 62.4751 294.221 50.2409C293.657 45.4946 293.525 40.7125 293.828 35.9456C288.951 23.1055 288.486 0 288.486 0C288.486 0 284.719 25.6337 286.602 37.8678C288.486 50.102 312.342 96.7086 317.992 104.282Z" fill="black"/>
<path id="Vector_20" opacity="0.1" d="M376.89 23.7424C376.638 22.5909 376.256 21.4673 375.75 20.3904C375.75 20.3904 376.232 21.6478 376.89 23.7424Z" fill="black"/>
<path id="Vector_21" opacity="0.1" d="M155.147 82.416C160.68 83.0445 167.045 84.6198 171.9 88.2733C171.583 87.2794 171.307 86.3883 171.087 85.6396C165.436 66.4144 135.302 69.9099 135.302 69.9099C148.92 71.53 152.438 76.9352 155.147 82.416Z" fill="black"/>
<path id="Vector_22" d="M311.185 571.672C315.661 587.027 330.993 596.536 330.993 596.536C330.993 596.536 339.068 581.151 334.592 565.796C330.116 550.441 314.784 540.932 314.784 540.932C314.784 540.932 306.709 556.317 311.185 571.672Z" fill="#3F3D56"/>
<path id="Vector_23" d="M317.763 568.372C330.045 579.468 331.546 596.524 331.546 596.524C331.546 596.524 313.132 595.591 300.849 584.495C288.566 573.4 287.066 556.343 287.066 556.343C287.066 556.343 305.48 557.276 317.763 568.372Z" fill="#38D39F"/>
<path id="Vector_24" d="M277.052 152.053C275.985 167.929 263.018 180.098 263.018 180.098C263.018 180.098 251.784 166.527 252.851 150.652C253.919 134.776 266.885 122.607 266.885 122.607C266.885 122.607 278.12 136.177 277.052 152.053Z" fill="#38D39F"/>
<path id="Vector_25" d="M141.893 51.6886C156.393 60.1719 161.682 76.5662 161.682 76.5662C161.682 76.5662 143.461 79.2062 128.961 70.7229C114.461 62.2395 109.172 45.8452 109.172 45.8452C109.172 45.8452 127.393 43.2052 141.893 51.6886Z" fill="#38D39F"/>
<path id="Vector_26" d="M109.511 245.239C124.012 253.722 129.301 270.116 129.301 270.116C129.301 270.116 111.08 272.756 96.5796 264.273C82.0794 255.79 76.7905 239.395 76.7905 239.395C76.7905 239.395 95.0112 236.755 109.511 245.239Z" fill="#38D39F"/>
<path id="Vector_27" d="M186.655 319.477C201.155 327.961 206.444 344.355 206.444 344.355C206.444 344.355 188.223 346.995 173.723 338.512C159.223 330.028 153.934 313.634 153.934 313.634C153.934 313.634 172.155 310.994 186.655 319.477Z" fill="#38D39F"/>
<path id="Vector_28" d="M404.295 79.9841C399.922 95.3646 384.654 104.963 384.654 104.963C384.654 104.963 376.477 89.6244 380.849 74.2439C385.222 58.8634 400.49 49.2651 400.49 49.2651C400.49 49.2651 408.668 64.6036 404.295 79.9841Z" fill="#38D39F"/>
<path id="Vector_29" d="M542.235 91.9766C537.095 107.152 521.363 116.08 521.363 116.08C521.363 116.08 513.963 100.405 519.103 85.2299C524.242 70.0549 539.975 61.1266 539.975 61.1266C539.975 61.1266 547.375 76.8016 542.235 91.9766Z" fill="#38D39F"/>
<path id="Vector_30" d="M691.326 260.867C682.016 274.223 664.289 278.939 664.289 278.939C664.289 278.939 661.657 262.001 670.967 248.645C680.277 235.289 698.004 230.573 698.004 230.573C698.004 230.573 700.636 247.51 691.326 260.867Z" fill="#38D39F"/>
<path id="Vector_31" d="M457.265 370.079C457.265 370.079 455.77 375.167 458.761 377.017C461.751 378.868 462.748 387.657 462.748 387.657L456.767 402.922L440.815 405.697L434.833 395.058V379.33C434.833 379.33 436.827 371.467 436.329 369.154C435.83 366.841 457.265 370.079 457.265 370.079Z" fill="#FFB9B9"/>
<path id="Vector_32" opacity="0.2" d="M457.265 370.079C457.265 370.079 455.77 375.167 458.761 377.017C461.751 378.868 462.748 387.657 462.748 387.657L456.767 402.922L440.815 405.697L434.833 395.058V379.33C434.833 379.33 436.827 371.467 436.329 369.154C435.83 366.841 457.265 370.079 457.265 370.079Z" fill="black"/>
<path id="Vector_33" d="M473.217 457.506L486.177 459.819C486.177 459.819 487.174 473.234 486.177 476.472C485.18 479.71 484.183 483.411 485.18 484.336C486.177 485.261 480.694 508.852 481.192 510.24C481.691 511.628 482.688 515.791 482.189 518.567C481.691 521.342 480.195 520.417 481.192 523.192C482.189 525.968 483.186 526.43 482.189 528.281C481.192 530.131 476.207 575.001 474.712 575.464C473.217 575.926 459.758 576.389 459.758 575.464C459.758 574.539 464.244 567.6 462.748 565.75C461.253 563.899 463.247 532.444 463.247 531.056C463.247 529.669 466.238 527.356 464.742 526.43C463.247 525.505 462.25 524.58 462.748 523.192C463.247 521.805 464.244 521.342 463.247 519.954C462.25 518.567 462.25 490.812 458.761 489.887C458.761 489.887 454.274 510.24 455.77 515.329C457.265 520.417 455.271 522.267 455.271 522.267L462.25 527.818L452.779 544.471L442.809 533.832C442.809 533.832 442.809 531.056 440.815 530.594C438.821 530.131 437.824 529.669 437.824 528.281C437.824 526.893 434.335 518.104 434.335 518.104C434.335 518.104 424.365 488.962 429.35 474.159C434.335 459.356 436.255 459.846 436.255 459.846L473.217 457.506Z" fill="#2F2E41"/>
<path id="Vector_34" d="M481.192 553.26L486.676 558.811L484.682 574.076H480.196L473.217 559.736L481.192 553.26Z" fill="#FFB9B9"/>
<path id="Vector_35" d="M484.682 563.437C484.682 563.437 482.688 567.6 481.192 566.675C479.697 565.75 479.201 564.362 476.957 564.362C474.712 564.362 472.718 564.824 473.217 565.75C473.715 566.675 479.697 576.852 479.697 576.852C480.575 578.589 481.03 580.484 481.03 582.402C481.03 584.321 480.575 586.216 479.697 587.953C476.706 593.967 487.673 597.205 489.667 590.729C491.66 584.253 492.159 576.852 491.66 574.076C491.162 571.301 494.153 556.961 494.153 556.961C494.153 556.961 486.1 553.516 483.646 553.388C483.646 553.388 485.679 561.586 484.682 563.437Z" fill="#2F2E41"/>
<path id="Vector_36" d="M471.223 573.613L473.217 579.164C473.217 579.164 473.217 584.715 475.211 587.491C477.204 590.266 479.198 596.28 471.223 596.742C463.247 597.205 459.758 594.43 459.758 594.43C459.758 594.43 461.253 590.729 459.758 589.341C458.262 587.953 459.758 585.178 459.758 585.178L461.253 574.076L471.223 573.613Z" fill="#2F2E41"/>
<path id="Vector_37" d="M457.764 527.356H462.25L484.682 554.648C484.682 554.648 480.694 563.437 474.712 564.362C474.712 564.362 473.715 563.899 469.229 561.124C464.742 558.348 452.779 544.471 452.779 544.471L451.283 536.607L457.764 527.356Z" fill="#2F2E41"/>
<path id="Vector_38" d="M446.797 376.092C455.607 376.092 462.748 369.465 462.748 361.29C462.748 353.115 455.607 346.487 446.797 346.487C437.987 346.487 430.845 353.115 430.845 361.29C430.845 369.465 437.987 376.092 446.797 376.092Z" fill="#FFB9B9"/>
<path id="Vector_39" d="M466.238 380.255L461.253 378.405C461.253 378.405 460.755 394.595 451.283 394.595C441.812 394.595 431.842 392.283 431.842 387.657C431.842 383.031 423.867 395.983 423.867 395.983C423.867 395.983 431.344 442.241 430.845 442.704C430.347 443.166 436.329 467.683 436.329 467.683C436.329 467.683 461.751 468.608 470.226 465.37C478.7 462.132 481.192 456.118 481.192 456.118L477.703 415.411L470.724 383.956L466.238 380.255Z" fill="#38D39F"/>
<path id="Vector_40" d="M457.766 376.092C457.766 376.092 459.758 374.242 462.748 376.092C465.739 377.943 484.183 382.106 484.183 383.494V401.072C484.183 401.072 484.682 403.847 483.186 405.697C481.691 407.548 478.201 414.486 480.195 417.724C482.189 420.962 489.667 458.431 488.171 463.057C486.676 467.683 482.688 471.846 482.688 471.846C482.688 471.846 461.253 429.751 461.253 417.724C461.253 405.697 461.461 390.942 461.461 390.942L457.766 376.092Z" fill="#575A89"/>
<path id="Vector_41" d="M479.697 383.956H484.183C484.183 383.956 501.132 414.024 501.132 420.037C501.132 426.051 490.165 459.356 489.168 459.819C488.171 460.282 485.18 454.731 485.18 454.731L482.688 436.228C482.688 436.228 487.673 425.126 486.177 423.275C484.682 421.425 477.204 407.085 477.204 407.085L479.697 383.956Z" fill="#575A89"/>
<path id="Vector_42" d="M435.57 376.092C435.57 376.092 429.848 379.793 428.851 381.181C427.855 382.568 412.9 390.432 412.402 392.283C411.903 394.133 423.867 409.861 423.867 409.861C423.867 409.861 428.851 435.765 428.851 437.615C428.851 439.466 430.845 470.921 430.845 470.921C430.845 470.921 451.283 476.472 451.283 473.234C451.283 469.996 451.782 423.738 448.791 413.561C445.8 403.384 435.57 376.092 435.57 376.092Z" fill="#575A89"/>
<path id="Vector_43" d="M438.821 471.846C438.821 471.846 455.77 493.125 446.797 492.662C437.824 492.2 431.842 474.159 431.842 474.159L438.821 471.846Z" fill="#FFB9B9"/>
<path id="Vector_44" d="M418.383 390.895L412.402 392.283C412.402 392.283 407.417 432.99 410.408 438.54C413.398 444.091 429.35 480.173 429.35 478.785C429.35 477.397 443.382 474.924 442.846 473.616C442.311 472.309 439.32 466.758 438.323 464.907C437.326 463.057 435.83 460.744 436.329 458.431C436.827 456.118 430.845 446.219 430.845 446.219C430.845 446.219 429.35 440.391 428.851 437.615C428.353 434.84 423.867 404.31 423.867 404.31L418.383 390.895Z" fill="#575A89"/>
<path id="Vector_45" d="M462.437 349.831C462.132 348.961 461.489 348.227 460.632 347.773C460.677 346.854 460.548 345.935 460.251 345.057C459.258 342.493 456.906 342.64 454.686 341.507C453.723 341.015 453.783 340.58 453.282 339.773C452.609 338.699 451.625 337.823 450.442 337.242C449.073 336.34 447.493 335.755 445.831 335.533C442.291 335.323 439.577 338.231 436.194 339.164C434.702 339.575 433.1 339.592 431.601 339.981C430.102 340.37 428.606 341.299 428.383 342.651C428.279 343.275 428.461 343.915 428.357 344.539C428.149 345.779 426.903 346.648 426.069 347.668C424.225 349.924 424.436 353.11 425.911 355.565C426.223 356.075 426.579 356.561 426.974 357.018C427.099 358.184 427.481 359.315 428.097 360.338C429.572 362.793 432.109 364.627 434.76 366.15C434.543 365.338 434.411 364.508 434.367 363.672C434.329 363.393 434.371 363.11 434.487 362.851C434.783 362.312 435.563 362.168 436.158 361.873C436.725 361.527 437.185 361.05 437.492 360.488C437.799 359.927 437.942 359.3 437.908 358.671C437.944 357.434 437.644 356.195 437.792 354.964C437.8 354.677 437.875 354.395 438.012 354.138C438.149 353.881 438.345 353.654 438.586 353.474C439.045 353.247 439.563 353.139 440.083 353.162C442.607 353.072 445.244 353.032 447.47 351.989C448.193 351.571 448.964 351.23 449.77 350.973C451.662 350.542 453.595 351.701 454.686 353.118C455.776 354.536 456.32 356.223 457.326 357.688C458.332 359.152 460.07 360.458 462.015 360.284C462.124 360.285 462.231 360.266 462.331 360.227C462.431 360.188 462.521 360.131 462.596 360.059C462.68 359.929 462.717 359.777 462.703 359.627L462.812 353.132C462.902 352.02 462.775 350.901 462.437 349.831Z" fill="#2F2E41"/>
</g>
</g>
</g>
</g>
<defs>
<clipPath id="clip0">
<rect width="825" height="618" fill="white"/>
</clipPath>
</defs>
</svg>
